<?xml version="1.0" standalone="no"?>
<!DOCTYPE svg PUBLIC "-//W3C//DTD SVG 20010904//EN"
 "http://www.w3.org/TR/2001/REC-SVG-20010904/DTD/svg10.dtd">
<svg version="1.0" xmlns="http://www.w3.org/2000/svg"
 width="700.000000pt" height="700.000000pt" viewBox="0 0 700.000000 700.000000"
 preserveAspectRatio="xMidYMid meet">

<g transform="translate(0.000000,700.000000) scale(0.100000,-0.100000)"
fill="#000000" stroke="none">
<path d="M3200 6514 c-777 -46 -1514 -231 -2206 -553 -210 -97 -353 -176 -395
-217 -21 -20 -50 -59 -65 -88 -26 -45 -29 -61 -29 -136 0 -97 8 -121 76 -236
90 -150 173 -200 318 -192 73 4 82 8 218 82 1057 579 2365 745 3583 455 396
-94 751 -224 1149 -422 201 -100 205 -101 275 -101 137 0 216 60 316 240 54
97 55 101 55 179 0 67 -4 89 -28 137 -39 80 -88 118 -270 209 -691 348 -1377
546 -2161 624 -144 15 -695 27 -836 19z m675 -194 c791 -57 1510 -255 2217
-611 103 -53 186 -100 198 -116 34 -43 27 -92 -26 -185 -51 -87 -88 -118 -142
-118 -21 0 -112 39 -265 114 -521 257 -1010 411 -1567 495 -503 76 -1079 75
-1580 0 -565 -86 -1070 -245 -1586 -500 -236 -116 -264 -124 -321 -89 -40 24
-113 152 -113 198 0 39 19 78 52 109 30 28 343 184 516 257 593 252 1275 413
1902 449 137 8 588 6 715 -3z"/>
<path d="M4213 5286 c-97 -24 -183 -74 -264 -155 -86 -87 -131 -166 -154 -276
-20 -95 -19 -157 5 -249 47 -187 173 -327 355 -396 73 -28 224 -38 306 -21
132 27 281 132 355 248 146 226 106 527 -93 713 -134 126 -333 178 -510 136z
m292 -211 c159 -77 244 -257 201 -425 -89 -345 -552 -386 -704 -62 -23 49 -27
70 -27 152 0 107 18 160 80 236 44 53 82 81 154 111 48 20 69 23 147 20 75 -2
100 -8 149 -32z"/>
<path d="M940 4923 c-38 -14 -60 -47 -60 -89 0 -39 116 -235 1274 -2166 975
-1624 1281 -2127 1301 -2136 33 -15 57 -15 90 0 20 9 326 512 1301 2136 1169
1948 1274 2127 1274 2167 0 77 -77 119 -143 77 -19 -12 -202 -311 -613 -1002
-322 -542 -592 -995 -600 -1008 l-14 -22 -72 54 c-170 130 -383 152 -578 59
-98 -47 -212 -159 -258 -253 -97 -198 -75 -414 59 -594 52 -69 152 -147 229
-177 30 -13 57 -24 58 -25 5 -3 -681 -1144 -688 -1144 -3 0 -556 920 -1229
2045 -673 1124 -1231 2051 -1240 2059 -19 16 -70 27 -91 19z m3558 -2097 c55
-28 142 -101 142 -119 0 -5 -80 -141 -177 -302 l-177 -293 -43 13 c-102 31
-194 112 -241 213 -23 49 -27 70 -27 152 0 107 18 160 80 236 44 53 82 81 154
111 48 20 69 23 146 20 74 -3 99 -8 143 -31z"/>
<path d="M2965 4805 c-19 -18 -25 -35 -25 -65 0 -57 34 -90 93 -90 58 0 87 29
87 89 0 57 -33 91 -90 91 -30 0 -47 -6 -65 -25z"/>
<path d="M2580 4170 c-387 -54 -600 -477 -417 -825 38 -71 133 -171 201 -210
231 -135 501 -102 687 84 224 224 222 572 -5 796 -123 121 -298 179 -466 155z
m225 -214 c216 -99 291 -369 155 -559 -168 -235 -524 -196 -648 70 -36 78 -37
200 -4 285 25 63 93 145 148 179 104 64 243 74 349 25z"/>
<path d="M3906 3589 c-22 -17 -26 -28 -26 -69 0 -41 4 -52 26 -69 65 -51 154
-11 154 69 0 80 -89 120 -154 69z"/>
<path d="M2965 2555 c-19 -18 -25 -35 -25 -65 0 -57 34 -90 93 -90 58 0 87 29
87 89 0 57 -33 91 -90 91 -30 0 -47 -6 -65 -25z"/>
</g>
</svg>
