<svg xmlns="http://www.w3.org/2000/svg">
  <symbol id="phone-icon" viewBox="0 0 24 24" width="24" height="24" aria-hidden="true" focusable="false">
    <path fill="#fff" d="M15.045,0c-.027-.001-6.063-.001-6.09,0-2.736,.024-4.955,2.258-4.955,4.999v14c0,2.757,2.243,5,5,5h6c2.757,0,5-2.243,5-5V5C20,2.258,17.781,.025,15.045,0Zm2.955,18.999c0,1.654-1.346,3-3,3h-6c-1.654,0-3-1.346-3-3V5c0-1.453,1.038-2.667,2.411-2.942l.694,1.389c.169,.339,.516,.553,.895,.553h4c.379,0,.725-.214,.895-.553l.694-1.389c1.373,.274,2.411,1.489,2.411,2.942v14Zm-5,1h-2c-.552,0-1-.448-1-1h0c0-.552,.448-1,1-1h2c.552,0,1,.448,1,1h0c0,.552-.448,1-1,1Z"/>
  </symbol>

  <symbol id="shopping-cart" viewBox="0 0 24 24" width="24" height="24" aria-hidden="true" focusable="false">
    <path fill="#fff" d="M22.713,4.077A2.993,2.993,0,0,0,20.41,3H4.242L4.2,2.649A3,3,0,0,0,1.222,0H1A1,1,0,0,0,1,2h.222a1,1,0,0,1,.993.883l1.376,11.7A5,5,0,0,0,8.557,19H19a1,1,0,0,0,0-2H8.557a3,3,0,0,1-2.82-2h11.92a5,5,0,0,0,4.921-4.113l.785-4.354A2.994,2.994,0,0,0,22.713,4.077ZM21.4,6.178l-.786,4.354A3,3,0,0,1,17.657,13H5.419L4.478,5H20.41A1,1,0,0,1,21.4,6.178Z"/>
    <circle cx="7" cy="22" r="2"/>
    <circle cx="17" cy="22" r="2"/>
  </symbol>

  <symbol id="facebook" viewBox="0 0 24 24" width="24" height="24" aria-hidden="true" focusable="false">
    <path fill="#fff" d="M11.666,2.005C6.62,2.17,2.374,6.251,2.025,11.288c-0.369,5.329,3.442,9.832,8.481,10.589V14.65H8.892 c-0.726,0-1.314-0.588-1.314-1.314v0c0-0.726,0.588-1.314,1.314-1.314h1.613v-1.749c0-2.896,1.411-4.167,3.818-4.167 c0.357,0,0.662,0.008,0.921,0.021c0.636,0.031,1.129,0.561,1.129,1.198v0c0,0.663-0.537,1.2-1.2,1.2h-0.442 c-1.022,0-1.379,0.969-1.379,2.061v1.437h1.87c0.591,0,1.043,0.527,0.953,1.111l-0.108,0.701c-0.073,0.47-0.477,0.817-0.953,0.817 h-1.762v7.247C18.235,21.236,22,17.062,22,12C22,6.366,17.341,1.821,11.666,2.005z"/>
  </symbol>

  <symbol id="instagram" viewBox="0 0 24 24" width="24" height="24" aria-hidden="true" focusable="false">
    <path fill="#fff" d="M 8 3 C 5.239 3 3 5.239 3 8 L 3 16 C 3 18.761 5.239 21 8 21 L 16 21 C 18.761 21 21 18.761 21 16 L 21 8 C 21 5.239 18.761 3 16 3 L 8 3 z M 18 5 C 18.552 5 19 5.448 19 6 C 19 6.552 18.552 7 18 7 C 17.448 7 17 6.552 17 6 C 17 5.448 17.448 5 18 5 z M 12 7 C 14.761 7 17 9.239 17 12 C 17 14.761 14.761 17 12 17 C 9.239 17 7 14.761 7 12 C 7 9.239 9.239 7 12 7 z M 12 9 A 3 3 0 0 0 9 12 A 3 3 0 0 0 12 15 A 3 3 0 0 0 15 12 A 3 3 0 0 0 12 9 z"/>
  </symbol>

  <symbol id="whatsapp" viewBox="0 0 24 24" width="24" height="24" aria-hidden="true" focusable="false">
    <path fill="#fff" d="M19.077,4.928C17.191,3.041,14.683,2.001,12.011,2c-5.506,0-9.987,4.479-9.989,9.985 c-0.001,1.76,0.459,3.478,1.333,4.992L2,22l5.233-1.237c1.459,0.796,3.101,1.215,4.773,1.216h0.004 c5.505,0,9.986-4.48,9.989-9.985C22.001,9.325,20.963,6.816,19.077,4.928z M16.898,15.554c-0.208,0.583-1.227,1.145-1.685,1.186 c-0.458,0.042-0.887,0.207-2.995-0.624c-2.537-1-4.139-3.601-4.263-3.767c-0.125-0.167-1.019-1.353-1.019-2.581 S7.581,7.936,7.81,7.687c0.229-0.25,0.499-0.312,0.666-0.312c0.166,0,0.333,0,0.478,0.006c0.178,0.007,0.375,0.016,0.562,0.431 c0.222,0.494,0.707,1.728,0.769,1.853s0.104,0.271,0.021,0.437s-0.125,0.27-0.249,0.416c-0.125,0.146-0.262,0.325-0.374,0.437 c-0.125,0.124-0.255,0.26-0.11,0.509c0.146,0.25,0.646,1.067,1.388,1.728c0.954,0.85,1.757,1.113,2.007,1.239 c0.25,0.125,0.395,0.104,0.541-0.063c0.146-0.166,0.624-0.728,0.79-0.978s0.333-0.208,0.562-0.125s1.456,0.687,1.705,0.812 c0.25,0.125,0.416,0.187,0.478,0.291C17.106,14.471,17.106,14.971,16.898,15.554z"/>
  </symbol>

  <symbol id="drinks" width="24" height="24" fill-rule="evenodd" clip-rule="evenodd" aria-hidden="true" focusable="false">
    <path d="M12.185 4l2.113-4 1.359.634-1.817 3.366h4.199c0 .922 1.092 1.618 1.961 1.618v1.382h-1l-2 17h-10l-2.02-17h-.98v-1.382c.87 0 2-.697 2-1.618h6.185zm-5.185 3l1.735 15h6.53l1.735-15h-10zm3.75 10.5c.414 0 .75.336.75.75s-.336.75-.75.75-.75-.336-.75-.75.336-.75.75-.75zm2.727-2.5c.552 0 1 .448 1 1s-.448 1-1 1-1-.448-1-1 .448-1 1-1zm-2.977-3c.828 0 1.5.672 1.5 1.5s-.672 1.5-1.5 1.5-1.5-.672-1.5-1.5.672-1.5 1.5-1.5z"/>
  </symbol>

  <symbol id="pizza" height="24" viewBox="0 0 24 24" width="24" fill="#000" aria-hidden="true" focusable="false">
    <path d="M0 0h24v24H0z" fill="none"/>
    <path d="M12 2C8.43 2 5.23 3.54 3.01 6L12 22l8.99-16C18.78 3.55 15.57 2 12 2zM7 7c0-1.1.9-2 2-2s2 .9 2 2-.9 2-2 2-2-.9-2-2zm5 8c-1.1 0-2-.9-2-2s.9-2 2-2 2 .9 2 2-.9 2-2 2z"/>
  </symbol>

  <symbol id="pasta" enable-background="new 0 0 24 24" height="24" viewBox="0 0 24 24" width="24" fill="#000000" aria-hidden="true" focusable="false">
    <g>
      <rect fill="none" height="24" width="24" y="0"/>
    </g>
    <g>
      <g>
        <polygon points="2,19 4,21 20,21 22,19"/>
        <path d="M3,18h16.97c0,0,0,0,0,0c0.29-3.26-2.28-6-5.48-6c-2.35,0-4.35,1.48-5.14,3.55C8.94,15.32,8.48,15.17,8,15.08V9h1.75 C10.99,9,12,7.99,12,6.75h9v-1.5h-9C12,4.01,10.99,3,9.75,3H3v1.5h1v0.75H3v1.5h1V7.5H3V9h1v7.39C3.56,16.85,3.22,17.39,3,18z M14.5,14c0.99,0,1.91,0.4,2.58,1.14c0.24,0.26,0.44,0.55,0.58,0.86h-6.32C11.92,14.79,13.15,14,14.5,14z M8,4.5h2v0.75H8V4.5z M8,6.75h2V7.5H8V6.75z M5.5,4.5h1v0.75h-1V4.5z M5.5,6.75h1V7.5h-1V6.75z M5.5,9h1v6.06c-0.35,0.06-0.68,0.17-1,0.3V9z"/>
      </g>
    </g>
  </symbol>

  <symbol id="snacks" enable-background="new 0 0 24 24" height="24" viewBox="0 0 24 24" width="24" fill="#000000">
    <rect fill="none" height="24" width="24"/>
    <path d="M22,10V1h-8v9c0,1.86,1.28,3.41,3,3.86V21h-2v2h6v-2h-2v-7.14C20.72,13.41,22,11.86,22,10z M20,3v3h-4V3H20z M16,10V8h4v2 c0,1.1-0.9,2-2,2S16,11.1,16,10z M10,9H8V8h2c1.38,0,2.5-1.12,2.5-2.5C12.5,4.12,11.38,3,10,3H8V1H6v2H4C2.62,3,1.5,4.12,1.5,5.5 C1.5,6.88,2.62,8,4,8h2v1H4c-1.38,0-2.5,1.12-2.5,2.5C1.5,12.88,2.62,14,4,14h2v9h2v-9h2c1.38,0,2.5-1.12,2.5-2.5 C12.5,10.12,11.38,9,10,9z M4,6C3.72,6,3.5,5.78,3.5,5.5S3.72,5,4,5h6c0.28,0,0.5,0.22,0.5,0.5S10.28,6,10,6H4z M10,12H4 c-0.28,0-0.5-0.22-0.5-0.5S3.72,11,4,11h6c0.28,0,0.5,0.22,0.5,0.5S10.28,12,10,12z"/>
  </symbol>

  <symbol id="fast-delivery" enable-background="new 0 0 24 24" height="24" viewBox="0 0 24 24" width="24" fill="#000000">
    <g>
      <rect fill="none" height="24" width="24"/>
    </g>
    <g>
      <g>
        <path d="M19,7c0-1.1-0.9-2-2-2h-3v2h3v2.65L13.52,14H10V9H6c-2.21,0-4,1.79-4,4v3h2c0,1.66,1.34,3,3,3s3-1.34,3-3h4.48L19,10.35V7 z M7,17c-0.55,0-1-0.45-1-1h2C8,16.55,7.55,17,7,17z"/>
        <rect height="2" width="5" x="5" y="6"/>
        <path d="M19,13c-1.66,0-3,1.34-3,3s1.34,3,3,3s3-1.34,3-3S20.66,13,19,13z M19,17c-0.55,0-1-0.45-1-1s0.45-1,1-1s1,0.45,1,1 S19.55,17,19,17z"/>
      </g>
    </g>
  </symbol>

  <symbol id="quality-foods" height="24" viewBox="0 0 24 24" width="24" fill="#000000">
    <path d="M0 0h24v24H0V0z" fill="none"/>
    <path d="M16.85 6.85l1.44 1.44-4.88 4.88-3.29-3.29c-.39-.39-1.02-.39-1.41 0l-6 6.01c-.39.39-.39 1.02 0 1.41.39.39 1.02.39 1.41 0L9.41 12l3.29 3.29c.39.39 1.02.39 1.41 0l5.59-5.58 1.44 1.44c.31.31.85.09.85-.35V6.5c.01-.28-.21-.5-.49-.5h-4.29c-.45 0-.67.54-.36.85z"/>
  </symbol>

  <symbol id="best-taste" width="24" height="24" fill-rule="evenodd" clip-rule="evenodd">
    <path d="M20 15.628c0-.713-.154-1.919-1.191-1.98-.493-.03-.89-.414-.936-.904-.055-.581-.186-1.184-.476-1.744h-10.793c-.29.56-.421 1.163-.476 1.743-.046.49-.443.874-.936.904-1.037.062-1.192 1.268-1.192 1.981 0 .316.333 1.613 1.331 1.963.284.1.508.322.61.605.966 2.694 3.628 4.804 6.059 4.804 2.552 0 5.195-2.499 6.063-4.834.108-.29.344-.515.641-.606 1.07-.332 1.296-1.68 1.296-1.932zm-13-7.229v1.601h3v-1.5c0-.276.224-.5.5-.5s.5.224.5.5v1.5h2v-1.5c0-.276.225-.5.5-.5s.5.224.5.5v1.5h3v-1.647c.244-.058 3-.439 3-3.068 0-1.994-1.753-3.58-3.875-3.58-.806 0-1.278.198-1.941.428-1.137-1.123-1.63-1.133-2.184-1.133-.482 0-1.038.002-2.184 1.133-.68-.235-1.134-.428-1.941-.428-2.122 0-3.875 1.586-3.875 3.58 0 2.456 2.662 3.013 3 3.114zm14 7.229c0 .67-.453 2.407-2 2.887-1.023 2.754-3.999 5.485-7 5.485s-5.957-2.557-7-5.466c-1.52-.532-2-2.301-2-2.906 0-1.509.603-2.888 2.132-2.979.098-1.038.412-1.855.868-2.528v-.977c-1.825-.546-3-2.239-3-3.859 0-2.528 2.185-4.58 4.875-4.58.591 0 1.157.099 1.681.28.615-.607 1.483-.985 2.444-.985.961 0 1.828.378 2.443.985.525-.181 1.091-.28 1.682-.28 2.69 0 4.875 2.052 4.875 4.58 0 1.62-1.229 3.442-3 3.859v.976c.456.675.771 1.492.868 2.529 1.527.091 2.132 1.462 2.132 2.979zm-9 1.688c-1.9-1.287-1.351 1.854-4 .566.4 1.78 2.805 2.082 4 1.009 1.195 1.073 3.6.771 4-1.009-2.648 1.289-2.1-1.852-4-.566zm3-4.316c-.552 0-1 .525-1 1.174 0 .647.448 1.174 1 1.174s1-.527 1-1.174c0-.649-.448-1.174-1-1.174zm-5 1.174c0 .647-.448 1.174-1 1.174s-1-.527-1-1.174c0-.649.448-1.174 1-1.174s1 .525 1 1.174z"/>
  </symbol>

  <symbol id="mobile-app" x="0px" y="0px" fill="#fff" viewBox="0 0 71.58 122.88" style="enable-background:new 0 0 71.58 122.88" xml:space="preserve">
    <style type="text/css">.st0{fill-rule:evenodd;clip-rule:evenodd;}</style>
    <g>
      <path class="st0" d="M12.72,0h46.13c3.5,0,6.71,1.44,9,3.73c2.32,2.32,3.72,5.49,3.72,9v97.43c0,3.5-1.44,6.71-3.72,9 c-2.32,2.32-5.49,3.73-9,3.73H12.72c-3.5,0-6.71-1.44-9-3.73c-2.32-2.32-3.72-5.49-3.72-9l0-97.43c0-3.5,1.44-6.71,3.73-9 C6.05,1.4,9.22,0,12.72,0L12.72,0z M42.91,75.58h0.17c1.29,0,2.36,1.07,2.36,2.36v15.15h1.53v-6.35c0-1.2,0.99-2.19,2.19-2.19h0.17 c1.29,0,2.36,1.07,2.36,2.36v6.34l0.08-0.03h1.65v-4.82c0-1.2,0.99-2.19,2.19-2.19h0.16c1.29,0,2.36,1.07,2.36,2.36v4.41h0.01 l1.64-0.02v-3.12c0-1.2,0.99-2.19,2.19-2.19h0.17c1.29,0,2.36,1.07,2.36,2.36v6.61c0,0.07,0,0.16-0.02,0.24l0.08,0.06 c0.07,1.9,0.04,4.17-0.31,6.36h3.7V19.73H3.61v83.53h35.46L31.33,91c-0.48-1.13-0.42-1.89,0.06-2.39c2.07-1.35,5.47,1.52,9.22,5.57 l0.14-0.03V77.74c0-1.2,0.99-2.19,2.19-2.19L42.91,75.58L42.91,75.58z M44.33,69.25c0,0.65-0.53,1.16-1.16,1.16 c-0.65,0-1.16-0.53-1.16-1.16v-4.67c0-0.65,0.53-1.16,1.16-1.16c0.65,0,1.16,0.53,1.16,1.16V69.25L44.33,69.25L44.33,69.25z M33.79,78.82c0.65,0,1.16,0.53,1.16,1.16c0,0.65-0.53,1.16-1.16,1.16h-4.67c-0.65,0-1.16-0.53-1.16-1.16 c0-0.65,0.53-1.16,1.16-1.16H33.79L33.79,78.82z M37.1,71.9c0.45,0.45,0.45,1.19,0,1.64c-0.45,0.45-1.19,0.45-1.64,0l-3.29-3.3 c-0.45-0.45-0.45-1.19,0-1.64c0.45-0.45,1.19-0.45,1.64,0L37.1,71.9L37.1,71.9z M52.32,81.13c-0.65,0-1.16-0.53-1.16-1.16 c0-0.65,0.53-1.16,1.16-1.16h4.67c0.65,0,1.16,0.53,1.16,1.16c0,0.65-0.53,1.16-1.16,1.16H52.32L52.32,81.13z M50.66,73.28 c-0.45,0.45-1.19,0.45-1.64,0c-0.45-0.45-0.45-1.19,0-1.64l3.29-3.3c0.45-0.45,1.19-0.45,1.64,0c0.45,0.45,0.45,1.19,0,1.64 L50.66,73.28L50.66,73.28z M11.72,65.51h7.13c1.79,0,3.25,1.46,3.25,3.25v7.13c0,1.79-1.46,3.25-3.25,3.25h-7.13 c-1.79,0-3.25-1.46-3.25-3.25v-7.13C8.46,66.98,9.93,65.51,11.72,65.51L11.72,65.51z M52.73,45.12h7.13c1.79,0,3.25,1.46,3.25,3.25 v7.13c0,1.79-1.46,3.25-3.25,3.25h-7.13c-1.79,0-3.25-1.46-3.25-3.25v-7.13C49.48,46.58,50.95,45.12,52.73,45.12L52.73,45.12z M32.22,45.12h7.13c1.79,0,3.25,1.46,3.25,3.25v7.13c0,1.79-1.46,3.25-3.25,3.25h-7.13c-1.79,0-3.25-1.46-3.25-3.25v-7.13 C28.97,46.58,30.44,45.12,32.22,45.12L32.22,45.12z M11.72,45.12h7.13c1.79,0,3.25,1.46,3.25,3.25v7.13c0,1.79-1.46,3.25-3.25,3.25 h-7.13c-1.79,0-3.25-1.46-3.25-3.25v-7.13C8.46,46.58,9.93,45.12,11.72,45.12L11.72,45.12z M52.73,24.73h7.13 c1.79,0,3.25,1.46,3.25,3.25v7.13c0,1.79-1.46,3.25-3.25,3.25h-7.13c-1.79,0-3.25-1.46-3.25-3.25v-7.13 C49.48,26.19,50.95,24.73,52.73,24.73L52.73,24.73z M32.22,24.73h7.13c1.79,0,3.25,1.46,3.25,3.25v7.13c0,1.79-1.46,3.25-3.25,3.25 h-7.13c-1.79,0-3.25-1.46-3.25-3.25v-7.13C28.97,26.19,30.44,24.73,32.22,24.73L32.22,24.73z M11.72,24.73h7.13 c1.79,0,3.25,1.46,3.25,3.25v7.13c0,1.79-1.46,3.25-3.25,3.25h-7.13c-1.79,0-3.25-1.46-3.25-3.25v-7.13 C8.46,26.19,9.93,24.73,11.72,24.73L11.72,24.73z M35.77,107.24c2.88,0,5.24,2.32,5.24,5.24c0,2.88-2.32,5.24-5.24,5.24 c-2.88,0-5.24-2.32-5.24-5.24C30.54,109.6,32.86,107.24,35.77,107.24L35.77,107.24z"/></g>
  </symbol>
</svg>
